<?xml version="1.0" standalone="no"?>
<!DOCTYPE svg PUBLIC "-//W3C//DTD SVG 20010904//EN"
 "http://www.w3.org/TR/2001/REC-SVG-20010904/DTD/svg10.dtd">
<svg version="1.0" xmlns="http://www.w3.org/2000/svg"
 width="300.000000pt" height="300.000000pt" viewBox="0 0 300.000000 300.000000"
 preserveAspectRatio="xMidYMid meet">
<metadata>
Created by potrace 1.10, written by Peter Selinger 2001-2011
</metadata>
<g transform="translate(0.000000,300.000000) scale(0.100000,-0.100000)"
fill="#000000" stroke="none">
<path d="M1329 2989 c-280 -22 -557 -143 -805 -350 -233 -194 -407 -482 -484
-800 -26 -108 -41 -343 -30 -479 27 -338 171 -648 417 -901 266 -274 600 -430
957 -447 326 -16 541 26 799 154 237 119 475 343 618 585 81 136 154 336 178
489 16 98 20 291 10 420 -37 490 -359 954 -822 1187 -115 57 -268 108 -382
127 -112 18 -329 25 -456 15z m175 -56 c3 -21 6 -66 6 -99 l0 -61 46 -7 c83
-11 154 -8 154 8 0 7 3 28 6 46 6 28 4 32 -12 28 -10 -2 -21 -14 -24 -28 -7
-29 -31 -35 -97 -25 -42 6 -43 7 -43 44 0 21 3 60 7 86 l6 48 76 -7 c42 -3
115 -13 164 -22 100 -18 97 -14 67 -119 -11 -38 -20 -77 -20 -87 0 -12 25 -25
92 -47 50 -17 92 -30 93 -28 0 1 9 20 18 41 15 32 16 41 5 47 -13 8 -19 3 -43
-36 -9 -14 -14 -14 -60 1 -27 9 -54 20 -59 25 -10 9 31 156 45 165 10 6 92
-26 211 -83 l97 -46 -44 -82 c-25 -45 -45 -86 -45 -92 0 -5 34 -33 77 -63 l76
-53 29 32 c24 27 27 35 16 48 -11 13 -15 12 -34 -12 l-22 -28 -55 40 -55 39
44 69 c24 38 46 70 48 73 7 7 146 -93 211 -152 l60 -55 -67 -68 c-38 -38 -68
-72 -68 -76 0 -10 109 -141 121 -145 4 -2 22 7 39 19 49 37 33 69 -17 34 -20
-14 -23 -12 -62 30 -23 24 -41 49 -41 54 0 5 28 35 62 66 l63 56 37 -43 c72
-82 169 -232 156 -239 -7 -4 -48 -27 -90 -51 l-76 -44 39 -84 c22 -46 42 -86
44 -89 3 -2 23 1 45 8 30 9 40 17 40 32 0 13 -5 19 -12 16 -55 -20 -56 -20
-83 32 -14 28 -25 55 -25 61 0 9 130 80 148 80 14 0 122 -268 122 -301 0 -4
-39 -20 -87 -34 -49 -15 -91 -30 -96 -34 -4 -4 1 -47 11 -97 l18 -89 33 -3
c31 -3 61 11 61 29 0 4 -17 9 -37 11 l-38 3 -9 59 c-7 46 -6 60 5 67 17 10
147 34 154 28 7 -8 33 -197 37 -269 l3 -65 -101 3 -101 4 -6 -69 c-4 -37 -7
-85 -7 -105 l0 -38 45 0 c54 0 65 27 15 37 -28 5 -30 9 -30 47 0 85 2 86 96
86 l84 0 0 -44 c0 -53 -37 -278 -48 -287 -4 -4 -49 3 -100 16 -51 12 -95 18
-98 14 -11 -18 -54 -153 -54 -170 0 -19 62 -45 80 -34 14 8 -6 35 -26 35 -7 0
-15 4 -19 9 -7 13 34 121 47 121 21 0 134 -32 145 -42 9 -7 7 -23 -9 -66 -32
-89 -106 -242 -116 -242 -5 0 -45 20 -88 45 -44 25 -82 45 -85 45 -7 0 -109
-146 -109 -157 0 -11 55 -53 70 -53 18 0 11 28 -12 44 l-21 15 36 55 37 55 53
-30 c29 -17 64 -39 77 -49 l24 -18 -71 -94 c-39 -51 -86 -110 -105 -131 l-33
-38 -76 70 -76 70 -72 -61 c-39 -33 -71 -62 -71 -63 0 -10 43 -75 49 -75 4 0
12 5 19 12 9 9 7 17 -10 35 l-21 23 44 39 c24 22 49 40 55 41 13 0 114 -106
114 -120 0 -18 -237 -200 -261 -200 -4 0 -29 38 -56 84 l-48 84 -70 -30 c-39
-16 -80 -34 -92 -39 -22 -8 -22 -9 -7 -54 9 -25 17 -45 19 -45 25 0 33 14 23
41 -6 17 -9 31 -7 33 10 9 111 57 113 54 2 -2 21 -36 42 -76 38 -71 38 -73 20
-87 -33 -25 -229 -98 -265 -99 l-35 -1 -22 77 c-28 97 -29 98 -62 93 -176 -27
-170 -24 -156 -93 8 -41 34 -31 34 13 0 31 2 33 48 39 26 4 54 9 63 12 13 4
21 -12 37 -78 12 -45 19 -84 17 -87 -10 -10 -147 -31 -243 -37 l-104 -7 4 96
c1 52 -1 99 -5 103 -4 5 -50 10 -102 12 l-95 4 0 -36 c0 -20 0 -39 -1 -43 0
-5 6 -9 14 -11 10 -2 17 9 21 31 l6 34 53 -4 c80 -7 77 -3 77 -98 l0 -85 -30
0 c-66 0 -310 43 -310 55 0 2 11 44 24 94 14 52 21 93 15 96 -5 4 -39 17 -77
30 -37 12 -75 26 -84 30 -12 5 -21 -2 -32 -24 -9 -16 -16 -37 -16 -46 0 -24
26 -17 39 11 7 15 17 24 25 21 8 -3 33 -11 56 -18 23 -7 44 -18 47 -25 4 -11
-31 -151 -40 -160 -10 -11 -307 123 -307 138 0 5 18 43 41 84 23 41 39 81 36
88 -9 22 -136 109 -151 103 -7 -3 -23 -19 -35 -36 -26 -37 -10 -53 23 -22 12
12 25 21 29 21 12 0 97 -64 97 -73 0 -5 -19 -40 -41 -78 l-42 -70 -26 17 c-56
36 -148 109 -194 153 l-47 45 71 72 72 72 -63 74 c-35 40 -66 74 -69 75 -3 1
-22 -11 -41 -27 -26 -22 -32 -32 -24 -40 9 -9 19 -7 39 6 l28 18 38 -45 c21
-24 39 -49 39 -56 0 -7 -28 -36 -62 -64 l-62 -52 -36 40 c-54 62 -152 202
-154 220 -1 11 28 34 81 65 l81 49 -38 82 c-38 82 -38 82 -75 81 -43 -2 -65
-18 -47 -36 9 -9 18 -9 37 0 24 11 26 9 50 -38 14 -27 25 -55 25 -63 0 -12
-121 -87 -142 -87 -19 0 -135 297 -121 311 4 4 44 17 88 29 44 12 84 25 88 30
5 4 1 49 -8 99 l-17 91 -44 0 c-38 0 -44 -3 -44 -21 0 -17 5 -20 32 -17 l33 3
11 -63 c6 -34 8 -65 4 -67 -11 -7 -132 -35 -151 -35 -17 0 -18 5 -54 306 l-3
31 103 -5 102 -5 7 59 c4 33 9 80 12 107 l6 47 -52 0 c-57 0 -67 -21 -14 -30
16 -3 29 -11 28 -18 -1 -6 -2 -37 -2 -67 l-2 -55 -52 0 c-29 0 -70 3 -92 7
l-38 6 6 66 c10 99 36 245 46 255 5 5 48 -1 100 -14 52 -13 95 -19 99 -14 5 5
19 41 31 79 13 39 25 75 27 82 5 13 -71 56 -81 46 -11 -11 -6 -33 7 -33 6 0
18 -4 26 -9 13 -8 12 -18 -4 -70 -10 -34 -23 -61 -29 -61 -11 0 -158 41 -164
46 -5 4 66 180 99 247 16 31 34 57 40 57 7 0 45 -18 86 -41 40 -22 80 -39 87
-36 7 3 35 37 62 77 l49 72 -34 30 c-24 21 -36 27 -44 19 -8 -8 -4 -18 12 -35
l24 -25 -35 -48 c-19 -26 -42 -48 -50 -47 -24 2 -128 73 -128 87 0 17 87 134
152 207 l48 52 77 -70 77 -70 73 65 72 66 -20 28 c-26 37 -38 44 -52 30 -7 -7
-6 -16 6 -29 9 -10 17 -22 17 -25 0 -7 -77 -80 -90 -85 -10 -4 -120 110 -119
123 0 13 137 123 206 165 28 18 56 29 61 26 6 -3 30 -40 54 -81 24 -41 49 -75
56 -75 7 0 48 18 92 40 l79 40 -13 37 c-9 26 -19 38 -32 38 -12 0 -18 -6 -15
-15 14 -56 14 -56 -38 -79 -29 -12 -56 -19 -61 -16 -10 6 -80 128 -80 139 0
20 294 135 308 121 4 -3 18 -45 32 -93 29 -99 18 -94 153 -71 l67 11 0 36 c0
21 -4 43 -9 51 -14 22 -31 3 -31 -34 0 -33 0 -34 -57 -41 -32 -4 -60 -7 -63
-8 -7 -1 -38 114 -39 146 -1 25 2 27 67 37 100 16 121 18 193 20 l66 1 7 -37z"/>
<path d="M1340 2924 c-8 -1 -36 -6 -62 -9 -45 -6 -48 -8 -48 -36 0 -38 16 -69
36 -69 12 0 15 9 12 38 l-3 37 60 7 c33 3 63 3 67 -1 5 -4 11 -41 14 -83 l7
-76 -49 -7 c-27 -4 -89 -16 -138 -26 -49 -10 -91 -17 -93 -16 -2 2 -14 41 -28
87 -14 47 -29 88 -33 92 -10 10 -183 -53 -210 -77 -7 -6 39 -85 49 -85 16 0
22 30 11 55 -11 23 -8 25 44 44 30 12 61 21 68 21 12 0 65 -146 55 -153 -2 -1
-59 -28 -127 -59 l-123 -57 -51 79 c-27 44 -53 80 -57 80 -7 0 -117 -76 -166
-115 -19 -15 -18 -16 18 -52 27 -28 40 -34 48 -26 8 8 7 19 -7 42 -10 17 -16
32 -13 34 36 30 103 67 108 61 9 -10 74 -104 84 -120 4 -7 -9 -22 -31 -37 -20
-13 -67 -52 -104 -86 -36 -33 -69 -61 -73 -61 -4 0 -41 30 -82 66 -40 37 -75
65 -77 63 -1 -2 -33 -43 -70 -91 l-67 -87 40 -26 c39 -26 61 -27 61 -2 0 7 -9
18 -20 25 -28 17 -25 31 19 81 l38 45 50 -42 c87 -72 93 -51 -71 -277 -14 -20
-16 -19 -100 23 -48 23 -88 42 -90 42 -5 0 -74 -154 -81 -182 -6 -23 -3 -27
30 -38 62 -21 90 7 35 35 l-30 15 26 57 c13 31 26 59 28 61 7 6 146 -68 146
-78 0 -6 -16 -54 -36 -108 -20 -53 -41 -109 -46 -125 -7 -18 -16 -26 -27 -23
-33 10 -153 36 -165 36 -12 0 -17 -19 -42 -193 l-6 -38 48 3 c37 2 50 7 52 21
3 12 -3 17 -22 17 -33 0 -39 12 -31 68 10 76 12 77 96 61 l74 -15 -2 -79 c-2
-44 -6 -108 -9 -141 l-5 -62 -100 -7 c-95 -7 -99 -8 -99 -30 0 -44 22 -180 30
-189 4 -4 27 -5 49 -1 32 5 41 11 41 27 0 17 -5 20 -35 16 -38 -4 -35 -10 -49
93 l-4 37 45 6 c25 3 65 6 89 6 43 0 44 -1 44 -32 1 -18 9 -77 19 -130 10 -53
15 -102 11 -108 -4 -7 -43 -24 -86 -39 -92 -31 -93 -34 -49 -147 38 -95 43
-100 86 -71 54 36 44 61 -17 42 -18 -6 -24 1 -43 49 -13 30 -20 59 -17 65 11
17 149 58 153 45 2 -7 30 -64 61 -128 l58 -117 -75 -47 c-41 -26 -79 -50 -85
-54 -8 -6 91 -155 120 -179 14 -11 74 34 74 56 0 23 -20 28 -39 11 -10 -9 -22
-16 -28 -16 -10 0 -83 90 -83 102 0 3 31 26 69 51 l69 46 65 -82 c35 -45 74
-91 86 -101 11 -11 21 -25 21 -31 0 -7 -29 -44 -64 -81 l-64 -69 46 -40 c61
-53 133 -108 136 -103 48 65 58 98 31 98 -8 0 -22 -11 -31 -25 l-16 -25 -27
20 c-14 11 -39 31 -55 44 l-30 25 58 65 58 66 54 -45 c31 -24 82 -61 115 -81
32 -20 59 -39 59 -41 0 -2 -18 -39 -40 -83 -22 -44 -40 -85 -40 -93 0 -11 42
-32 162 -82 l36 -15 16 47 c13 37 13 48 4 55 -21 13 -25 10 -37 -22 -5 -16
-15 -30 -21 -30 -24 0 -110 51 -110 66 0 12 17 46 66 135 2 4 41 -9 86 -27 46
-18 104 -39 131 -46 26 -6 47 -17 47 -22 -1 -6 -7 -40 -15 -76 -8 -36 -14 -77
-15 -91 0 -31 16 -36 143 -46 l77 -6 0 45 c0 24 -3 47 -6 51 -14 13 -34 -7
-34 -35 l0 -31 -57 7 c-81 9 -85 16 -68 100 8 38 16 71 19 73 2 2 67 -1 145
-8 l141 -12 0 -99 0 -98 33 1 c17 0 68 6 112 12 77 12 80 13 77 37 -6 57 -13
71 -30 68 -13 -3 -16 -12 -14 -41 l3 -37 -71 0 -70 0 0 33 c0 17 -3 56 -6 85
l-7 52 37 0 c21 0 82 9 138 21 55 11 104 17 108 12 4 -4 18 -45 30 -90 19 -65
28 -83 42 -83 19 0 198 69 198 76 0 14 -42 84 -51 84 -16 0 -21 -27 -9 -50 10
-19 7 -23 -45 -45 -30 -14 -60 -25 -65 -25 -8 0 -41 80 -53 130 -6 24 1 28
121 86 l128 60 49 -83 c28 -45 54 -83 58 -83 11 0 177 123 177 132 0 13 -52
68 -65 68 -25 0 -27 -21 -4 -46 22 -24 22 -24 3 -39 -51 -39 -95 -68 -98 -64
-18 22 -86 130 -86 136 0 4 17 20 38 34 20 15 67 55 104 89 l68 62 72 -66 c40
-36 75 -66 79 -66 9 0 129 156 129 168 0 16 -50 52 -71 52 -25 0 -24 -27 1
-40 11 -6 20 -15 20 -21 0 -11 -72 -109 -80 -109 -3 1 -32 25 -65 55 l-59 54
22 28 c12 15 47 65 79 111 31 45 60 82 65 82 5 0 45 -18 89 -40 44 -23 83 -38
88 -36 14 9 84 185 78 199 -3 7 -21 18 -41 24 -29 9 -38 8 -48 -4 -9 -12 -9
-16 3 -24 8 -5 19 -9 26 -9 6 0 15 -5 18 -10 8 -13 -41 -120 -55 -120 -9 0
-128 56 -138 65 -3 3 86 257 92 263 2 1 45 -7 97 -17 52 -11 95 -18 97 -16 5
4 32 177 32 203 0 20 -5 22 -50 22 -43 0 -50 -3 -50 -20 0 -15 7 -20 28 -20
16 0 31 -2 34 -5 5 -5 -11 -127 -18 -134 -2 -2 -40 4 -85 14 l-81 19 6 30 c2
17 8 79 12 137 l6 106 52 7 c28 3 74 6 103 6 l52 0 -5 33 c-2 17 -9 68 -14
111 -6 44 -12 81 -14 83 -6 6 -96 -19 -96 -26 1 -18 19 -30 45 -28 28 2 30 0
38 -51 5 -29 6 -59 4 -66 -5 -13 -153 -34 -163 -23 -3 2 -11 46 -19 98 -8 52
-19 109 -24 128 -14 46 -6 54 87 81 42 12 81 26 85 30 8 7 -56 187 -72 203 -9
9 -91 -28 -91 -41 1 -19 16 -30 30 -22 32 20 50 11 71 -37 11 -25 18 -53 17
-61 -2 -9 -33 -25 -72 -39 -79 -26 -86 -27 -86 -12 0 6 -25 63 -55 126 -30 64
-54 117 -53 118 2 1 39 23 83 50 44 27 82 50 83 51 5 3 -128 184 -135 184 -10
0 -73 -50 -73 -58 0 -4 4 -13 9 -21 8 -12 14 -12 37 4 l28 18 38 -44 c21 -24
38 -47 38 -52 0 -8 -118 -97 -130 -97 -5 0 -23 19 -41 43 -18 23 -59 69 -91
102 l-58 61 71 77 c39 43 70 79 68 81 -44 37 -173 136 -177 136 -9 0 -52 -67
-52 -79 0 -24 25 -22 46 4 l22 28 51 -42 c28 -24 51 -46 51 -49 -1 -4 -25 -34
-54 -66 l-53 -60 -39 31 c-29 23 -172 119 -192 129 -1 0 18 38 44 83 25 45 44
88 41 95 -5 12 -171 86 -193 86 -7 0 -19 -19 -28 -42 -14 -33 -15 -43 -4 -49
22 -14 29 -10 41 21 6 17 14 30 18 30 11 0 119 -51 119 -56 0 -3 -17 -36 -37
-75 -27 -52 -40 -68 -52 -64 -9 4 -69 25 -134 47 -80 28 -117 45 -113 53 12
32 39 176 33 181 -3 3 -51 13 -107 21 -115 18 -122 15 -118 -47 4 -47 33 -54
42 -9 l6 32 62 -7 c34 -3 64 -8 66 -11 6 -6 -16 -136 -26 -152 -6 -9 -37 -9
-122 -2 -177 15 -160 4 -160 114 l0 95 -52 -1 c-29 -1 -60 -3 -68 -5z m337
-240 c380 -56 712 -293 886 -632 93 -180 130 -334 131 -537 0 -167 -13 -254
-60 -395 -149 -446 -535 -752 -1019 -810 -251 -30 -539 42 -775 194 -87 57
-227 190 -302 290 -167 221 -254 528 -228 807 35 375 221 692 527 896 250 166
543 232 840 187z"/>
</g>
</svg>
